<svg xmlns="http://www.w3.org/2000/svg" xmlns:xlink="http://www.w3.org/1999/xlink" width="500" zoomAndPan="magnify" viewBox="0 0 375 374.999991" height="500" preserveAspectRatio="xMidYMid meet" version="1.0"><defs><clipPath id="9e917d983d"><path d="M 128.480469 104.070312 L 246.230469 104.070312 L 246.230469 210.570312 L 128.480469 210.570312 Z M 128.480469 104.070312 " clip-rule="nonzero"/></clipPath><clipPath id="3e7bb32f2b"><path d="M 93.34375 210.304688 L 281.59375 210.304688 L 281.59375 263.554688 L 93.34375 263.554688 Z M 93.34375 210.304688 " clip-rule="nonzero"/></clipPath></defs><g clip-path="url(#9e917d983d)"><path fill="#1a1a1a" d="M 230.769531 149.546875 L 194.089844 149.546875 L 194.089844 139.191406 C 194.3125 137.710938 194.429688 136.203125 194.429688 134.683594 C 194.429688 133.125 194.316406 131.582031 194.089844 130.070312 L 194.089844 104.132812 L 191.132812 104.132812 L 191.132812 120.78125 C 189.703125 117.964844 187.832031 115.359375 185.542969 113.058594 C 184.304688 111.816406 182.976562 110.691406 181.570312 109.695312 L 181.570312 104.132812 L 178.617188 104.132812 L 178.617188 107.84375 C 174.203125 105.421875 169.21875 104.132812 164.03125 104.132812 L 128.480469 104.132812 L 128.480469 107.101562 L 164.03125 107.101562 C 179.164062 107.101562 191.476562 119.472656 191.476562 134.683594 C 191.476562 142.605469 188.011719 150.101562 181.941406 155.339844 C 179.011719 153.175781 175.707031 151.613281 172.078125 150.664062 C 178.054688 147.691406 181.917969 141.554688 181.917969 134.683594 C 181.917969 124.773438 173.894531 116.710938 164.03125 116.710938 L 128.480469 116.710938 L 128.480469 210.511719 L 131.4375 210.511719 L 131.4375 165.09375 L 140.996094 165.09375 L 140.996094 210.511719 L 164.027344 210.511719 C 169.21875 210.511719 174.203125 209.234375 178.621094 206.832031 L 178.621094 210.511719 L 181.574219 210.511719 L 181.574219 204.996094 C 182.976562 204.003906 184.304688 202.890625 185.542969 201.652344 C 187.832031 199.371094 189.703125 196.777344 191.132812 193.96875 L 191.132812 210.511719 L 194.089844 210.511719 L 194.089844 184.707031 C 194.316406 183.195312 194.429688 181.660156 194.429688 180.101562 C 194.429688 178.558594 194.316406 177.03125 194.089844 175.527344 L 194.089844 165.09375 L 230.765625 165.09375 L 230.765625 210.511719 L 233.722656 210.511719 L 233.722656 104.132812 L 230.765625 104.132812 L 230.765625 149.546875 Z M 191.136719 148.371094 L 191.136719 149.546875 L 190.496094 149.546875 C 190.71875 149.160156 190.929688 148.769531 191.136719 148.371094 Z M 143.953125 119.675781 L 164.03125 119.675781 C 172.261719 119.675781 178.960938 126.40625 178.960938 134.683594 C 178.960938 142.605469 172.640625 149.132812 164.566406 149.546875 L 143.953125 149.546875 Z M 131.4375 119.675781 L 140.996094 119.675781 L 140.996094 149.550781 L 131.4375 149.550781 Z M 164.03125 207.542969 L 143.953125 207.542969 L 143.953125 197.9375 L 164.03125 197.9375 C 168.820312 197.9375 173.3125 196.09375 176.679688 192.746094 C 180.058594 189.390625 181.914062 184.898438 181.914062 180.101562 C 181.914062 170.1875 173.890625 162.125 164.03125 162.125 L 131.4375 162.125 L 131.4375 152.519531 L 164.710938 152.519531 C 179.46875 152.792969 191.476562 165.164062 191.476562 180.101562 C 191.476562 195.234375 179.164062 207.542969 164.03125 207.542969 Z M 143.953125 194.964844 L 143.953125 165.09375 L 164.03125 165.09375 C 172.261719 165.09375 178.960938 171.824219 178.960938 180.097656 C 178.960938 188.296875 172.261719 194.964844 164.03125 194.964844 Z M 190.550781 165.09375 L 191.136719 165.09375 L 191.136719 166.195312 C 190.949219 165.824219 190.753906 165.460938 190.550781 165.09375 Z M 230.769531 162.125 L 188.675781 162.125 C 187.402344 160.34375 185.929688 158.6875 184.277344 157.191406 C 185.882812 155.773438 187.3125 154.207031 188.5625 152.519531 L 230.765625 152.519531 L 230.765625 162.125 Z M 246.238281 104.132812 L 246.238281 210.511719 L 243.285156 210.511719 L 243.285156 104.132812 Z M 246.238281 104.132812 " fill-opacity="1" fill-rule="nonzero"/></g><g clip-path="url(#3e7bb32f2b)"><path fill="#333333" d="M 257.855469 260.535156 C 265.113281 260.351562 272.554688 259.300781 279.949219 257.382812 C 280.578125 257.214844 281.09375 256.765625 281.34375 256.164062 C 281.59375 255.558594 281.539062 254.871094 281.21875 254.3125 L 260.933594 219.644531 C 260.53125 218.945312 259.75 218.550781 258.957031 218.621094 L 253.328125 219.140625 L 253.328125 219.210938 L 253.078125 218.761719 C 252.855469 218.382812 252.394531 218.230469 251.992188 218.425781 C 251.53125 218.652344 251.058594 218.859375 250.570312 219.042969 L 247.769531 214.125 C 247.546875 213.746094 247.085938 213.59375 246.683594 213.789062 C 241.429688 216.339844 234.996094 216.6875 226.441406 214.882812 C 224.210938 214.40625 221.957031 213.832031 219.769531 213.269531 C 215.171875 212.09375 210.421875 210.886719 205.601562 210.550781 C 202.453125 210.339844 198.996094 211.210938 195.332031 213.128906 C 191.949219 214.910156 189.132812 217.195312 187.238281 218.972656 C 185.34375 217.195312 182.53125 214.910156 179.144531 213.128906 C 175.496094 211.210938 172.039062 210.339844 168.878906 210.550781 C 164.042969 210.875 159.308594 212.09375 154.710938 213.269531 C 152.523438 213.832031 150.265625 214.40625 148.039062 214.882812 C 139.484375 216.6875 133.046875 216.339844 127.796875 213.789062 C 127.40625 213.59375 126.933594 213.746094 126.710938 214.125 L 123.949219 219.027344 C 123.464844 218.832031 122.988281 218.636719 122.53125 218.414062 C 122.140625 218.214844 121.667969 218.371094 121.445312 218.75 L 121.207031 219.167969 L 121.207031 219.128906 L 115.996094 218.609375 C 115.1875 218.523438 114.410156 218.929688 114.003906 219.632812 L 93.722656 254.296875 C 93.398438 254.84375 93.34375 255.515625 93.582031 256.121094 C 93.816406 256.722656 94.304688 257.171875 94.917969 257.351562 C 105.074219 260.4375 115.230469 261.78125 125.105469 261.359375 C 133.714844 260.996094 141.363281 259.355469 148.109375 257.898438 C 159.320312 255.488281 168.167969 253.597656 175.761719 258.601562 C 177.460938 259.722656 179.019531 261.121094 180.359375 262.761719 C 180.746094 263.238281 181.332031 263.519531 181.960938 263.519531 L 191.710938 263.519531 C 192.3125 263.519531 192.867188 263.265625 193.273438 262.816406 C 195.097656 260.746094 197.1875 259.007812 199.511719 257.675781 C 207.746094 252.910156 216.550781 254.734375 227.695312 257.046875 C 236.222656 258.808594 245.929688 260.8125 257.855469 260.535156 Z M 252.019531 220.25 L 253.703125 223.21875 L 253.703125 223.289062 L 253.734375 223.289062 L 270.003906 251.886719 C 263.207031 254.171875 254.957031 254.425781 244.148438 252.671875 C 240.957031 252.15625 237.265625 251.382812 233.378906 250.570312 C 226.175781 249.058594 218.738281 247.488281 212.734375 247.179688 C 207.828125 246.929688 202.632812 247.851562 198.105469 249.800781 C 194.859375 251.1875 192.03125 253.066406 189.734375 255.320312 C 194.789062 245.203125 204.390625 243.355469 212.035156 243.746094 C 217.945312 244.054688 223.417969 245.191406 229.226562 246.394531 C 232.292969 247.027344 235.453125 247.683594 238.660156 248.203125 C 239.328125 248.316406 240.011719 248.425781 240.691406 248.539062 C 249.332031 249.953125 258.273438 251.425781 266.230469 248.484375 C 266.453125 248.398438 266.632812 248.21875 266.714844 247.980469 C 266.800781 247.753906 266.773438 247.488281 266.660156 247.277344 L 251.421875 220.5 C 251.628906 220.417969 251.824219 220.332031 252.019531 220.25 Z M 205.515625 212.21875 C 210.199219 212.542969 214.863281 213.734375 219.394531 214.882812 C 221.59375 215.441406 223.878906 216.03125 226.136719 216.507812 C 234.6875 218.316406 241.265625 218.035156 246.738281 215.609375 L 264.738281 247.234375 C 257.410156 249.589844 249.066406 248.21875 240.972656 246.886719 C 240.289062 246.773438 239.605469 246.660156 238.9375 246.550781 C 235.761719 246.046875 232.628906 245.386719 229.578125 244.757812 C 223.976562 243.59375 218.179688 242.386719 212.132812 242.066406 C 206.421875 241.769531 201.433594 242.753906 197.324219 244.980469 C 193.214844 247.207031 190.066406 250.65625 187.9375 255.25 L 188.117188 220.472656 C 190.582031 218.117188 198.0625 211.714844 205.515625 212.21875 Z M 127.808594 215.609375 C 133.269531 218.035156 139.847656 218.316406 148.414062 216.507812 C 150.683594 216.03125 152.957031 215.441406 155.15625 214.882812 C 159.671875 213.734375 164.351562 212.527344 169.03125 212.21875 C 176.484375 211.714844 183.953125 218.105469 186.445312 220.472656 L 186.265625 254.957031 C 184.1875 250.09375 181.097656 246.578125 177.042969 244.488281 C 173.101562 242.457031 168.699219 242.007812 165.101562 242.007812 C 164.140625 242.007812 163.238281 242.039062 162.414062 242.078125 C 156.367188 242.386719 150.574219 243.59375 144.972656 244.769531 C 141.9375 245.402344 138.789062 246.058594 135.625 246.5625 C 134.941406 246.675781 134.273438 246.789062 133.589844 246.898438 C 125.511719 248.230469 117.152344 249.605469 109.824219 247.25 Z M 122.515625 220.25 C 122.710938 220.332031 122.921875 220.417969 123.117188 220.5 L 107.875 247.292969 C 107.75 247.503906 107.734375 247.753906 107.820312 247.992188 C 107.902344 248.230469 108.082031 248.398438 108.304688 248.496094 C 116.261719 251.453125 125.203125 249.984375 133.84375 248.554688 C 134.523438 248.441406 135.207031 248.328125 135.875 248.21875 C 139.082031 247.699219 142.242188 247.039062 145.308594 246.410156 C 151.101562 245.203125 156.578125 244.054688 162.5 243.761719 C 170.507812 243.339844 179.96875 244.460938 184.746094 255.65625 C 182.417969 253.246094 179.535156 251.257812 176.21875 249.816406 C 171.789062 247.867188 166.664062 246.941406 161.789062 247.195312 C 155.769531 247.503906 148.332031 249.070312 141.140625 250.585938 C 137.242188 251.398438 133.5625 252.183594 130.375 252.6875 C 119.5625 254.425781 111.300781 254.1875 104.515625 251.902344 L 120.789062 223.304688 L 120.800781 223.304688 L 120.800781 223.261719 Z M 182.90625 259.355469 C 181.445312 257.71875 179.816406 256.289062 178.03125 255.109375 C 168.988281 249.15625 158.917969 251.3125 147.242188 253.820312 C 140.65625 255.238281 133.203125 256.835938 124.941406 257.183594 C 116.359375 257.550781 107.539062 256.511719 98.667969 254.089844 L 116.929688 222.882812 L 118.992188 223.09375 L 102.59375 251.917969 C 102.46875 252.125 102.457031 252.378906 102.539062 252.617188 C 102.621094 252.839844 102.804688 253.023438 103.027344 253.121094 C 110.269531 255.8125 119.046875 256.191406 130.652344 254.3125 C 133.882812 253.792969 137.589844 253.007812 141.503906 252.195312 C 148.636719 250.699219 156.019531 249.140625 161.898438 248.847656 C 169.324219 248.46875 179.816406 251.019531 185.695312 259.355469 Z M 197.421875 254.058594 C 194.984375 255.476562 192.757812 257.253906 190.792969 259.355469 L 188.480469 259.355469 C 194.039062 251.539062 204.488281 248.425781 212.664062 248.847656 C 218.542969 249.15625 225.925781 250.699219 233.058594 252.195312 C 236.972656 253.023438 240.664062 253.792969 243.910156 254.3125 C 255.515625 256.191406 264.292969 255.796875 271.535156 253.121094 C 271.757812 253.039062 271.941406 252.855469 272.023438 252.617188 C 272.109375 252.394531 272.078125 252.125 271.96875 251.917969 L 255.585938 223.105469 L 258.050781 222.882812 L 276.257812 253.988281 C 270.058594 255.417969 263.859375 256.21875 257.785156 256.359375 C 246.335938 256.636719 236.875 254.675781 228.53125 252.953125 C 216.96875 250.570312 207.007812 248.496094 197.421875 254.058594 Z M 197.421875 254.058594 " fill-opacity="1" fill-rule="nonzero"/><path fill="#333333" d="M 257.855469 260.535156 C 265.113281 260.351562 272.554688 259.300781 279.949219 257.382812 C 280.578125 257.214844 281.09375 256.765625 281.34375 256.164062 C 281.59375 255.558594 281.539062 254.871094 281.21875 254.3125 L 260.933594 219.644531 C 260.53125 218.945312 259.75 218.550781 258.957031 218.621094 L 253.328125 219.140625 L 253.328125 219.210938 L 253.078125 218.761719 C 252.855469 218.382812 252.394531 218.230469 251.992188 218.425781 C 251.53125 218.652344 251.058594 218.859375 250.570312 219.042969 L 247.769531 214.125 C 247.546875 213.746094 247.085938 213.59375 246.683594 213.789062 C 241.429688 216.339844 234.996094 216.6875 226.441406 214.882812 C 224.210938 214.40625 221.957031 213.832031 219.769531 213.269531 C 215.171875 212.09375 210.421875 210.886719 205.601562 210.550781 C 202.453125 210.339844 198.996094 211.210938 195.332031 213.128906 C 191.949219 214.910156 189.132812 217.195312 187.238281 218.972656 C 185.34375 217.195312 182.53125 214.910156 179.144531 213.128906 C 175.496094 211.210938 172.039062 210.339844 168.878906 210.550781 C 164.042969 210.875 159.308594 212.09375 154.710938 213.269531 C 152.523438 213.832031 150.265625 214.40625 148.039062 214.882812 C 139.484375 216.6875 133.046875 216.339844 127.796875 213.789062 C 127.40625 213.59375 126.933594 213.746094 126.710938 214.125 L 123.949219 219.027344 C 123.464844 218.832031 122.988281 218.636719 122.53125 218.414062 C 122.140625 218.214844 121.667969 218.371094 121.445312 218.75 L 121.207031 219.167969 L 121.207031 219.128906 L 115.996094 218.609375 C 115.1875 218.523438 114.410156 218.929688 114.003906 219.632812 L 93.722656 254.296875 C 93.398438 254.84375 93.34375 255.515625 93.582031 256.121094 C 93.816406 256.722656 94.304688 257.171875 94.917969 257.351562 C 105.074219 260.4375 115.230469 261.78125 125.105469 261.359375 C 133.714844 260.996094 141.363281 259.355469 148.109375 257.898438 C 159.320312 255.488281 168.167969 253.597656 175.761719 258.601562 C 177.460938 259.722656 179.019531 261.121094 180.359375 262.761719 C 180.746094 263.238281 181.332031 263.519531 181.960938 263.519531 L 191.710938 263.519531 C 192.3125 263.519531 192.867188 263.265625 193.273438 262.816406 C 195.097656 260.746094 197.1875 259.007812 199.511719 257.675781 C 207.746094 252.910156 216.550781 254.734375 227.695312 257.046875 C 236.222656 258.808594 245.929688 260.8125 257.855469 260.535156 Z M 252.019531 220.25 L 253.703125 223.21875 L 253.703125 223.289062 L 253.734375 223.289062 L 270.003906 251.886719 C 263.207031 254.171875 254.957031 254.425781 244.148438 252.671875 C 240.957031 252.15625 237.265625 251.382812 233.378906 250.570312 C 226.175781 249.058594 218.738281 247.488281 212.734375 247.179688 C 207.828125 246.929688 202.632812 247.851562 198.105469 249.800781 C 194.859375 251.1875 192.03125 253.066406 189.734375 255.320312 C 194.789062 245.203125 204.390625 243.355469 212.035156 243.746094 C 217.945312 244.054688 223.417969 245.191406 229.226562 246.394531 C 232.292969 247.027344 235.453125 247.683594 238.660156 248.203125 C 239.328125 248.316406 240.011719 248.425781 240.691406 248.539062 C 249.332031 249.953125 258.273438 251.425781 266.230469 248.484375 C 266.453125 248.398438 266.632812 248.21875 266.714844 247.980469 C 266.800781 247.753906 266.773438 247.488281 266.660156 247.277344 L 251.421875 220.5 C 251.628906 220.417969 251.824219 220.332031 252.019531 220.25 Z M 205.515625 212.21875 C 210.199219 212.542969 214.863281 213.734375 219.394531 214.882812 C 221.59375 215.441406 223.878906 216.03125 226.136719 216.507812 C 234.6875 218.316406 241.265625 218.035156 246.738281 215.609375 L 264.738281 247.234375 C 257.410156 249.589844 249.066406 248.21875 240.972656 246.886719 C 240.289062 246.773438 239.605469 246.660156 238.9375 246.550781 C 235.761719 246.046875 232.628906 245.386719 229.578125 244.757812 C 223.976562 243.59375 218.179688 242.386719 212.132812 242.066406 C 206.421875 241.769531 201.433594 242.753906 197.324219 244.980469 C 193.214844 247.207031 190.066406 250.65625 187.9375 255.25 L 188.117188 220.472656 C 190.582031 218.117188 198.0625 211.714844 205.515625 212.21875 Z M 127.808594 215.609375 C 133.269531 218.035156 139.847656 218.316406 148.414062 216.507812 C 150.683594 216.03125 152.957031 215.441406 155.15625 214.882812 C 159.671875 213.734375 164.351562 212.527344 169.03125 212.21875 C 176.484375 211.714844 183.953125 218.105469 186.445312 220.472656 L 186.265625 254.957031 C 184.1875 250.09375 181.097656 246.578125 177.042969 244.488281 C 173.101562 242.457031 168.699219 242.007812 165.101562 242.007812 C 164.140625 242.007812 163.238281 242.039062 162.414062 242.078125 C 156.367188 242.386719 150.574219 243.59375 144.972656 244.769531 C 141.9375 245.402344 138.789062 246.058594 135.625 246.5625 C 134.941406 246.675781 134.273438 246.789062 133.589844 246.898438 C 125.511719 248.230469 117.152344 249.605469 109.824219 247.25 Z M 122.515625 220.25 C 122.710938 220.332031 122.921875 220.417969 123.117188 220.5 L 107.875 247.292969 C 107.75 247.503906 107.734375 247.753906 107.820312 247.992188 C 107.902344 248.230469 108.082031 248.398438 108.304688 248.496094 C 116.261719 251.453125 125.203125 249.984375 133.84375 248.554688 C 134.523438 248.441406 135.207031 248.328125 135.875 248.21875 C 139.082031 247.699219 142.242188 247.039062 145.308594 246.410156 C 151.101562 245.203125 156.578125 244.054688 162.5 243.761719 C 170.507812 243.339844 179.96875 244.460938 184.746094 255.65625 C 182.417969 253.246094 179.535156 251.257812 176.21875 249.816406 C 171.789062 247.867188 166.664062 246.941406 161.789062 247.195312 C 155.769531 247.503906 148.332031 249.070312 141.140625 250.585938 C 137.242188 251.398438 133.5625 252.183594 130.375 252.6875 C 119.5625 254.425781 111.300781 254.1875 104.515625 251.902344 L 120.789062 223.304688 L 120.800781 223.304688 L 120.800781 223.261719 Z M 182.90625 259.355469 C 181.445312 257.71875 179.816406 256.289062 178.03125 255.109375 C 168.988281 249.15625 158.917969 251.3125 147.242188 253.820312 C 140.65625 255.238281 133.203125 256.835938 124.941406 257.183594 C 116.359375 257.550781 107.539062 256.511719 98.667969 254.089844 L 116.929688 222.882812 L 118.992188 223.09375 L 102.59375 251.917969 C 102.46875 252.125 102.457031 252.378906 102.539062 252.617188 C 102.621094 252.839844 102.804688 253.023438 103.027344 253.121094 C 110.269531 255.8125 119.046875 256.191406 130.652344 254.3125 C 133.882812 253.792969 137.589844 253.007812 141.503906 252.195312 C 148.636719 250.699219 156.019531 249.140625 161.898438 248.847656 C 169.324219 248.46875 179.816406 251.019531 185.695312 259.355469 Z M 197.421875 254.058594 C 194.984375 255.476562 192.757812 257.253906 190.792969 259.355469 L 188.480469 259.355469 C 194.039062 251.539062 204.488281 248.425781 212.664062 248.847656 C 218.542969 249.15625 225.925781 250.699219 233.058594 252.195312 C 236.972656 253.023438 240.664062 253.792969 243.910156 254.3125 C 255.515625 256.191406 264.292969 255.796875 271.535156 253.121094 C 271.757812 253.039062 271.941406 252.855469 272.023438 252.617188 C 272.109375 252.394531 272.078125 252.125 271.96875 251.917969 L 255.585938 223.105469 L 258.050781 222.882812 L 276.257812 253.988281 C 270.058594 255.417969 263.859375 256.21875 257.785156 256.359375 C 246.335938 256.636719 236.875 254.675781 228.53125 252.953125 C 216.96875 250.570312 207.007812 248.496094 197.421875 254.058594 Z M 197.421875 254.058594 " fill-opacity="1" fill-rule="nonzero"/></g></svg>